<svg xmlns="http://www.w3.org/2000/svg" viewBox="0 0 120 60" width="120" height="60">
  <g fill="#232F3E">
    <path d="M33.4 21.8c0 .9.1 1.6.3 2.1.2.5.5 1.1.9 1.7.1.2.2.4.2.5 0 .2-.1.4-.4.6l-1.2.8c-.2.1-.3.2-.5.2-.2 0-.4-.1-.6-.3-.3-.3-.5-.6-.7-.9-.2-.3-.4-.7-.6-1.1-1.5 1.8-3.4 2.7-5.7 2.7-1.6 0-2.9-.5-3.9-1.4-.9-.9-1.4-2.2-1.4-3.7 0-1.6.6-2.9 1.7-4 1.2-1 2.7-1.5 4.6-1.5.6 0 1.3.1 2 .2.7.1 1.4.3 2.2.5v-1.4c0-1.5-.3-2.5-.9-3.1-.6-.6-1.7-.9-3.2-.9-.7 0-1.4.1-2.1.3-.7.2-1.4.4-2.1.8-.3.2-.5.2-.7.3-.2 0-.2-.1-.2-.4v-1c0-.3 0-.5.1-.6.1-.1.2-.3.5-.4.7-.4 1.5-.7 2.4-.9.9-.3 1.9-.4 3-.4 2.3 0 3.9.5 5 1.5 1 1 1.5 2.6 1.5 4.6v6.1zm-7.8 2.9c.6 0 1.3-.1 2-.3.7-.2 1.3-.6 1.8-1.2.3-.4.5-.8.7-1.3.1-.5.2-1.1.2-1.8v-.9c-.6-.2-1.2-.3-1.8-.4-.7-.1-1.3-.1-1.9-.1-1.3 0-2.2.2-2.8.7-.7.5-1 1.2-1 2.1 0 .9.2 1.5.7 2 .5.4 1.2.7 2.1.7v-.5zm15.4 2.1c-.3 0-.4 0-.6-.2-.1-.1-.3-.4-.4-.8L36 14.5c-.1-.4-.2-.7-.2-.8 0-.3.2-.5.5-.5h1.8c.3 0 .5 0 .6.2.1.1.3.4.4.8l2.9 11.4 2.7-11.4c.1-.4.2-.7.4-.8.1-.1.4-.2.6-.2h1.5c.3 0 .5 0 .6.2.1.1.3.4.4.8l2.7 11.5 3-11.5c.1-.4.2-.7.4-.8.1-.1.4-.2.6-.2h1.7c.3 0 .5.2.5.5 0 .1 0 .2-.1.4 0 .1-.1.3-.1.5l-4.2 11.3c-.1.4-.2.7-.4.8-.1.1-.4.2-.6.2H50c-.3 0-.5 0-.6-.2-.1-.1-.3-.4-.4-.8l-2.7-11.1-2.6 11c-.1.4-.2.7-.4.8-.1.2-.4.2-.6.2h-1.7zm24.7.6c-.9 0-1.9-.1-2.8-.3-.9-.2-1.6-.5-2.1-.8-.3-.2-.5-.4-.5-.6 0-.2-.1-.4-.1-.5v-1c0-.3.1-.5.3-.5.1 0 .2 0 .3.1.1.1.3.1.4.2.7.3 1.4.6 2.2.8.8.2 1.5.3 2.3.3 1.2 0 2.2-.2 2.8-.7.6-.5.9-1.1.9-2 0-.6-.2-1.1-.6-1.5-.4-.4-1.1-.7-2.1-1l-3-1c-1.5-.5-2.6-1.2-3.2-2.1-.7-.9-1-1.9-1-3 0-.9.2-1.6.6-2.3.4-.7.9-1.2 1.6-1.7.7-.4 1.4-.8 2.3-1 .9-.2 1.8-.3 2.7-.3.5 0 1 0 1.5.1.5.1 1 .2 1.5.3.5.1.9.3 1.3.4.4.2.7.3.9.5.3.2.5.3.6.5.1.2.2.4.2.7v1c0 .3-.1.5-.3.5-.1 0-.3-.1-.5-.2-1.4-.6-2.9-1-4.4-1-1.1 0-2 .2-2.6.6-.6.4-.9 1-.9 1.8 0 .6.2 1.1.6 1.5.4.4 1.2.8 2.3 1.1l2.9.9c1.5.5 2.5 1.2 3.2 2 .6.9 1 1.8 1 2.9 0 .9-.2 1.7-.6 2.4-.4.7-1 1.3-1.7 1.7-.7.5-1.5.8-2.4 1-.9.3-2 .4-3 .4z"/>
    <path d="M70.1 33.5c-5.4 4-13.2 6.1-19.9 6.1-9.4 0-17.9-3.5-24.3-9.3-.5-.5-.1-1.1.5-.7 6.9 4 15.5 6.4 24.3 6.4 5.9 0 12.5-1.2 18.5-3.8.9-.4 1.7.6.9 1.3z" fill="#FF9900"/>
    <path d="M72.7 30.5c-.7-.9-4.5-.4-6.2-.2-.5.1-.6-.4-.1-.7 3.1-2.1 8.1-1.5 8.6-.8.6.7-.2 5.8-3 8.2-.4.4-.9.2-.7-.3.7-1.7 2.1-5.5 1.4-6.2z" fill="#FF9900"/>
  </g>
</svg>
