<svg width="61" height="61" viewBox="0 0 61 61" fill="none" xmlns="http://www.w3.org/2000/svg">
<path fill-rule="evenodd" clip-rule="evenodd" d="M27.4294 2.03637L24.347 9.09997C21.6039 15.3861 16.6664 20.3898 10.5076 23.1251L2.02312 26.8932C-0.674373 28.0912 -0.674373 32.0175 2.02312 33.2154L10.2426 36.8659C16.5598 39.6715 21.5858 44.8607 24.2821 51.3611L27.4045 58.8889C28.5632 61.6825 32.4209 61.6825 33.5795 58.8889L36.7019 51.3611C39.3982 44.8607 44.4242 39.6715 50.7417 36.8659L58.9609 33.2154C61.6584 32.0175 61.6584 28.0912 58.9609 26.8932L50.4766 23.1251C44.3176 20.3898 39.3801 15.3861 36.637 9.09997L33.5546 2.03637C32.3697 -0.67879 28.6143 -0.67879 27.4294 2.03637ZM39.266 35.1902C40.1611 31.8521 39.7996 28.5627 38.7846 25.2183C37.9918 22.8947 36.964 20.8305 35.3051 19.1184C32.4228 16.1437 28.3958 16.2314 25.6046 19.3145C23.4349 21.7112 22.2237 24.5714 21.7628 27.717C21.3212 30.7314 20.9839 33.779 22.435 36.6933C24.1384 40.1143 27.5963 42.084 31.496 41.7387C35.1702 41.4135 38.2994 38.7947 39.266 35.1902Z" fill="white"/>
</svg>
