<svg xmlns="http://www.w3.org/2000/svg" viewBox="0 0 120 60" width="120" height="60">
  <path d="M17.4 38.7l3.2-4.8c2.2 1.7 5 2.7 7.5 2.7 2 0 3.3-.8 3.3-2.1v-.1c0-1.3-1-1.9-4.7-2.9-5.2-1.3-9.2-2.9-9.2-8.3v-.1c0-4.9 3.9-8.4 9.4-8.4 4.1 0 7.3 1.2 9.9 3.4l-2.9 5.1c-2-1.4-4.4-2.3-6.7-2.3-1.8 0-2.8.8-2.8 1.9v.1c0 1.4 1.1 2 4.8 3 5.5 1.3 9.1 3.2 9.1 8.1v.1c0 5.4-4.1 8.6-9.8 8.6-4.3 0-8.3-1.4-11.1-3.9zm22.7-8.3v-.1c0-6.7 4.8-12.5 12-12.5 4.3 0 7 1.4 9.2 3.6L58 25c-1.6-1.5-3.2-2.5-5.6-2.5-3.4 0-5.9 3-5.9 6.5v.1c0 3.6 2.5 6.6 6.2 6.6 2.2 0 3.8-.9 5.5-2.4l3.1 3.5c-2.3 2.5-5 4-9 4-7.2 0-12.2-5.6-12.2-12.4zm24.5-11.8h6.6v7c1.4-1.6 3.2-2.7 5.8-2.7 4.3 0 6.8 2.8 6.8 7.3v12.6h-6.6v-10.6c0-2.5-1.2-3.8-3.1-3.8-2 0-3.3 1.3-3.3 3.8v10.6h-6.6V18.6h-.6zm32.2 0h6.6v4.7l4.2-4.7h.1v6.7l-4.3 4.8v12.7h-6.6V18.6zm-5.1 24.2h6.6V23.2h-6.6v19.6zm0-22h6.6v-5.2h-6.6v5.2z" fill="#000"/>
</svg>
